<?xml version="1.0" standalone="no"?>
<!DOCTYPE svg PUBLIC "-//W3C//DTD SVG 20010904//EN"
 "http://www.w3.org/TR/2001/REC-SVG-20010904/DTD/svg10.dtd">
<svg version="1.0" xmlns="http://www.w3.org/2000/svg"
 width="4714.000000pt" height="1568.000000pt" viewBox="0 0 4714.000000 1568.000000"
 preserveAspectRatio="xMidYMid meet">
<metadata>
Created by potrace 1.15, written by Peter Selinger 2001-2017
</metadata>
<g transform="translate(0.000000,1568.000000) scale(0.100000,-0.100000)"
fill="#ffffff" stroke="none">
<path d="M6346 12765 c-825 -363 -1483 -834 -1845 -1322 -155 -209 -217 -345
-291 -639 -82 -327 -106 -509 -115 -859 l-5 -200 14 106 c45 351 221 671 565
1031 459 481 1219 966 2027 1294 l71 29 112 216 c61 119 111 221 111 226 0 13
-428 194 -455 193 -11 -1 -96 -34 -189 -75z"/>
<path d="M8905 11969 c-88 -10 -248 -34 -355 -53 -1246 -221 -2513 -787 -3390
-1514 -144 -119 -401 -376 -502 -502 -210 -261 -349 -532 -394 -767 -20 -108
-18 -280 5 -378 38 -158 214 -555 332 -751 68 -111 241 -364 251 -364 4 0 -13
38 -37 86 -99 193 -108 400 -29 645 89 275 272 547 564 839 366 366 838 695
1420 989 735 372 1496 619 2275 737 l180 28 308 269 c169 149 307 271 307 273
0 2 -162 112 -360 244 -265 176 -367 240 -387 239 -16 -1 -100 -9 -188 -20z"/>
<path d="M17140 11871 c-25 -15 -470 -175 -740 -266 -140 -47 -266 -93 -280
-102 -63 -40 -114 -104 -139 -173 -16 -45 -16 -4116 0 -4275 49 -490 287 -791
749 -946 184 -61 316 -81 587 -86 255 -6 389 4 598 43 126 23 393 89 403 99 3
3 -48 213 -114 467 l-119 463 -35 0 c-19 -1 -93 -12 -165 -25 -168 -30 -354
-33 -436 -6 -90 29 -148 79 -191 166 -67 134 -68 142 -68 1115 0 474 3 877 6
894 l7 31 488 0 489 0 0 495 0 495 -495 0 -495 0 0 810 c0 765 -1 810 -17 810
-10 0 -25 -5 -33 -9z"/>
<path d="M24605 11830 c-253 -33 -434 -84 -605 -170 -346 -174 -540 -446 -627
-877 -16 -82 -18 -235 -20 -2365 l-3 -2278 610 0 610 0 0 1565 0 1565 480 0
480 0 0 495 0 495 -475 0 -475 0 -6 25 c-3 14 -4 87 -2 163 6 174 25 231 107
313 106 105 247 134 508 104 87 -11 178 -19 202 -20 l44 0 94 420 c51 231 92
429 90 440 -2 16 -23 25 -127 52 -229 60 -342 75 -590 78 -124 2 -256 0 -295
-5z"/>
<path d="M13195 10374 c-16 -2 -66 -9 -110 -15 -124 -16 -295 -56 -418 -99
-552 -188 -852 -486 -948 -940 -32 -151 -32 -419 0 -570 85 -402 301 -647 712
-810 225 -88 721 -222 1174 -314 149 -31 294 -62 324 -70 79 -22 141 -64 176
-121 27 -43 30 -57 30 -124 -1 -58 -6 -86 -22 -117 -80 -152 -332 -224 -738
-211 -353 11 -523 66 -993 319 -141 76 -262 137 -267 136 -16 -4 -665 -691
-664 -703 1 -15 173 -167 264 -233 351 -256 761 -411 1262 -477 294 -38 648
-43 903 -11 655 82 1149 390 1341 836 136 316 140 749 10 1061 -114 273 -353
482 -686 599 -142 49 -325 94 -675 165 -516 105 -741 163 -852 223 -58 30
-117 111 -125 170 -7 51 29 131 82 186 97 98 310 144 615 133 368 -14 677
-118 950 -322 41 -30 77 -52 82 -49 5 3 138 150 296 327 158 177 302 339 321
360 l35 39 -74 69 c-243 228 -624 413 -1016 494 -266 55 -381 67 -679 70 -154
2 -293 1 -310 -1z"/>
<path d="M20316 10350 c-121 -14 -280 -49 -396 -86 -139 -45 -362 -157 -479
-241 -384 -276 -696 -749 -815 -1234 -49 -202 -61 -315 -60 -574 0 -329 39
-587 130 -865 139 -423 404 -767 760 -988 425 -264 969 -389 1479 -342 359 34
750 150 1012 301 183 105 361 255 499 420 57 68 65 82 53 94 -8 7 -189 146
-403 309 l-390 295 -106 -102 c-175 -169 -347 -271 -547 -324 -83 -22 -121
-26 -243 -27 -162 -1 -257 14 -411 65 -165 54 -278 128 -364 237 -86 108 -172
312 -203 481 l-9 51 1412 0 1412 0 7 38 c9 57 7 312 -4 462 -27 351 -105 657
-244 945 -298 621 -774 968 -1466 1071 -124 18 -509 27 -624 14z m473 -981
c25 -6 93 -34 151 -61 94 -45 114 -60 200 -147 146 -147 218 -291 245 -488 l7
-53 -775 0 c-733 0 -775 1 -772 18 76 380 258 618 545 711 125 41 278 48 399
20z"/>
<path d="M27475 10354 c-255 -26 -407 -53 -563 -99 -412 -123 -707 -295 -928
-542 l-68 -76 54 -50 c30 -28 195 -184 366 -348 l311 -297 84 75 c199 179 404
278 648 314 104 15 314 6 396 -16 279 -76 444 -296 445 -591 l0 -91 -422 -6
c-233 -4 -472 -11 -533 -17 -625 -58 -1027 -223 -1267 -520 -313 -387 -342
-1033 -66 -1478 62 -99 192 -241 287 -312 221 -166 641 -291 978 -290 374 1
744 167 1007 450 l56 61 0 -190 0 -191 601 0 600 0 -4 1348 c-5 1348 -6 1419
-41 1622 -65 375 -246 686 -516 884 -226 167 -563 289 -940 341 -112 15 -407
27 -485 19z m759 -2525 c11 -58 6 -229 -10 -307 -32 -158 -93 -270 -209 -387
-96 -97 -205 -167 -323 -208 -167 -58 -374 -46 -546 32 -163 74 -242 217 -234
425 3 86 8 109 32 156 15 30 42 70 59 88 45 47 148 106 248 143 96 35 230 50
684 73 143 7 267 14 276 15 11 1 19 -10 23 -30z"/>
<path d="M32483 10349 c-354 -34 -685 -205 -914 -471 l-59 -69 0 221 0 220
-585 0 -585 0 0 -2060 0 -2060 600 0 600 0 0 1213 c0 1328 0 1324 59 1485 90
247 297 434 540 488 87 20 230 15 326 -11 251 -69 377 -233 415 -545 6 -54 10
-540 10 -1352 l0 -1268 610 0 611 0 -4 1468 c-4 1597 -2 1552 -61 1783 -122
481 -475 824 -956 927 -179 39 -403 50 -607 31z"/>
<path d="M39213 10349 c-346 -33 -619 -163 -865 -411 l-118 -118 0 215 0 215
-590 0 -590 0 0 -2060 0 -2060 605 0 604 0 4 1263 3 1262 22 82 c79 296 298
518 568 579 207 46 481 -31 598 -168 78 -91 126 -223 146 -400 6 -62 10 -547
10 -1353 l0 -1255 610 0 610 0 0 1353 c0 1285 -5 1552 -31 1727 -64 443 -304
796 -665 982 -248 128 -578 181 -921 147z"/>
<path d="M34980 8195 l0 -2055 600 0 600 0 0 2055 0 2055 -600 0 -600 0 0
-2055z"/>
<path d="M41700 8195 l0 -2055 600 0 600 0 0 2055 0 2055 -600 0 -600 0 0
-2055z"/>
<path d="M8740 9944 c-1376 -324 -2662 -1075 -3177 -1856 -86 -131 -168 -305
-199 -424 -32 -123 -37 -291 -11 -398 26 -106 89 -216 176 -308 150 -160 550
-394 931 -546 133 -53 389 -136 396 -129 3 2 -37 19 -88 36 -470 165 -641 481
-478 887 69 173 196 351 385 539 415 416 1044 778 1770 1020 175 59 449 134
622 170 18 4 613 599 613 614 0 11 -797 421 -816 420 -11 0 -66 -12 -124 -25z"/>
<path d="M8740 8006 c-560 -177 -1046 -456 -1355 -778 -149 -155 -245 -311
-275 -449 -20 -91 -9 -215 25 -285 151 -311 727 -415 1453 -262 56 12 102 25
102 30 0 4 -8 8 -19 8 -37 0 -197 51 -267 85 -133 65 -218 173 -216 273 3 204
379 490 782 596 l85 22 203 254 c111 139 202 256 202 260 0 6 -561 261 -605
276 -5 1 -57 -12 -115 -30z"/>
<path d="M31385 5049 c-165 -22 -354 -93 -480 -184 -190 -135 -342 -359 -401
-592 -75 -296 -45 -624 80 -878 119 -240 289 -392 543 -484 149 -54 228 -66
448 -65 183 0 208 3 296 26 179 48 332 134 463 259 l76 72 0 423 0 424 -455 0
-455 0 0 -120 0 -120 330 0 330 0 0 -250 0 -249 -72 -51 c-91 -64 -170 -102
-273 -132 -70 -20 -100 -23 -250 -22 -141 1 -183 4 -249 22 -294 81 -495 301
-561 615 -19 87 -19 284 -1 379 57 292 243 530 490 623 172 65 405 73 580 21
112 -34 243 -101 324 -166 l61 -49 73 85 c40 47 74 91 76 98 6 26 -167 156
-285 215 -189 94 -442 131 -688 100z"/>
<path d="M36537 5034 c-106 -19 -217 -57 -307 -105 -244 -131 -436 -380 -506
-657 -144 -567 98 -1142 566 -1343 166 -72 237 -84 480 -84 194 0 224 2 304
24 413 109 676 402 762 847 25 128 23 359 -4 484 -41 193 -117 353 -238 501
-146 178 -346 290 -593 333 -117 20 -354 20 -464 0z m458 -263 c272 -72 481
-284 555 -566 30 -113 38 -310 16 -433 -55 -313 -256 -557 -528 -641 -142 -43
-359 -46 -513 -6 -249 64 -444 266 -532 552 -25 82 -27 101 -27 268 0 168 2
186 28 270 37 123 77 201 146 293 115 152 259 239 458 277 105 20 292 13 397
-14z"/>
<path d="M33280 3951 l0 -1071 140 0 140 0 0 380 0 380 255 0 254 0 328 -380
328 -379 173 -1 c94 0 172 3 171 8 0 4 -155 180 -345 392 -289 324 -340 385
-321 388 277 34 457 171 541 412 25 72 30 103 34 210 7 234 -47 380 -197 530
-96 96 -163 135 -298 172 -75 21 -99 22 -640 26 l-563 3 0 -1070z m1100 803
c216 -49 363 -282 321 -509 -35 -186 -166 -315 -351 -344 -36 -6 -226 -11
-427 -11 l-363 0 0 440 0 440 376 0 c305 0 388 -3 444 -16z"/>
<path d="M40130 4353 c0 -368 -5 -697 -10 -733 -39 -272 -210 -463 -462 -514
-96 -20 -155 -20 -255 -1 -119 23 -214 74 -303 164 -82 82 -119 147 -154 266
-19 67 -20 102 -24 773 l-3 702 -135 0 -135 0 4 -722 c4 -792 3 -781 66 -944
88 -226 295 -403 556 -476 69 -19 104 -22 260 -22 167 0 186 2 268 27 295 90
486 285 565 576 l26 96 4 738 3 737 -135 0 -136 0 0 -667z"/>
<path d="M41330 3950 l0 -1070 135 0 135 0 0 345 0 344 443 3 442 3 80 27
c227 77 364 221 447 468 28 85 32 108 32 215 1 143 -14 203 -85 352 -103 215
-285 341 -539 372 -49 7 -293 11 -587 11 l-503 0 0 -1070z m1082 799 c125 -26
250 -119 301 -222 118 -241 40 -533 -172 -645 -106 -57 -146 -62 -563 -62
l-378 0 0 470 0 470 380 0 c240 0 398 -4 432 -11z"/>
</g>
</svg>
